{
  "accessors": [
    {
      "bufferView": 2,
      "componentType": 5126,
      "count": 65532,
      "max": [
        87.000625610351562,
        36.460361480712891,
        72.759262084960938
      ],
      "min": [
        -54.879798889160156,
        -65.053543090820312,
        -68.411026000976562
      ],
      "type": "VEC3"
    },
    {
      "bufferView": 2,
      "byteOffset": 786384,
      "componentType": 5126,
      "count": 65532,
      "max": [
        0.9999924898147583,
        0.99997949600219727,
        0.99997007846832275
      ],
      "min": [
        -0.99999558925628662,
        -0.99998509883880615,
        -0.99793213605880737
      ],
      "type": "VEC3"
    },
    {
      "bufferView": 3,
      "componentType": 5126,
      "count": 65532,
      "max": [
        0.99996763467788696,
        0.99993705749511719,
        0.99999582767486572,
        1
      ],
      "min": [
        -0.99998348951339722,
        -0.99996775388717651,
        -0.99995166063308716,
        -1
      ],
      "type": "VEC4"
    },
    {
      "bufferView": 1,
      "componentType": 5126,
      "count": 65532,
      "max": [
        0.84273797273635864,
        0.94891202449798584
      ],
      "min": [
        0.00048799999058246613,
        0.15610200166702271
      ],
      "type": "VEC2"
    },
    {
      "bufferView": 0,
      "componentType": 5125,
      "count": 364293,
      "max": [
        65531
      ],
      "min": [
        0
      ],
      "type": "SCALAR"
    },
    {
      "bufferView": 2,
      "byteOffset": 1572768,
      "componentType": 5126,
      "count": 65534,
      "max": [
        88.955039978027344,
        82.5028076171875,
        72.705375671386719
      ],
      "min": [
        -54.968715667724609,
        -62.431449890136719,
        -76.636283874511719
      ],
      "type": "VEC3"
    },
    {
      "bufferView": 2,
      "byteOffset": 2359176,
      "componentType": 5126,
      "count": 65534,
      "max": [
        0.9995734691619873,
        0.99997991323471069,
        0.99991887807846069
      ],
      "min": [
        -0.99999678134918213,
        -0.99449068307876587,
        -0.99997740983963013
      ],
      "type": "VEC3"
    },
    {
      "bufferView": 3,
      "byteOffset": 1048512,
      "componentType": 5126,
      "count": 65534,
      "max": [
        0.99994730949401855,
        0.99939453601837158,
        0.99994349479675293,
        1
      ],
      "min": [
        -0.99997210502624512,
        -0.99995964765548706,
        -0.99989962577819824,
        -1
      ],
      "type": "VEC4"
    },
    {
      "bufferView": 1,
      "byteOffset": 524256,
      "componentType": 5126,
      "count": 65534,
      "max": [
        0.97161799669265747,
        0.98654097318649292
      ],
      "min": [
        0.00048799999058246613,
        0.023864999413490295
      ],
      "type": "VEC2"
    },
    {
      "bufferView": 0,
      "byteOffset": 1457172,
      "componentType": 5125,
      "count": 350739,
      "max": [
        65533
      ],
      "min": [
        0
      ],
      "type": "SCALAR"
    },
    {
      "bufferView": 2,
      "byteOffset": 3145584,
      "componentType": 5126,
      "count": 21412,
      "max": [
        92.047660827636719,
        82.776748657226562,
        12.585190773010254
      ],
      "min": [
        -54.635345458984375,
        -38.845333099365234,
        -70.588973999023438
      ],
      "type": "VEC3"
    },
    {
      "bufferView": 2,
      "byteOffset": 3402528,
      "componentType": 5126,
      "count": 21412,
      "max": [
        0.99999409914016724,
        0.99997657537460327,
        0.96388739347457886
      ],
      "min": [
        -0.99772322177886963,
        -0.99999725818634033,
        -0.99229830503463745
      ],
      "type": "VEC3"
    },
    {
      "bufferView": 3,
      "byteOffset": 2097056,
      "componentType": 5126,
      "count": 21412,
      "max": [
        0.99988764524459839,
        0.99254608154296875,
        0.99990755319595337,
        1
      ],
      "min": [
        -0.9997793436050415,
        -0.99979233741760254,
        -0.99994856119155884,
        -1
      ],
      "type": "VEC4"
    },
    {
      "bufferView": 1,
      "byteOffset": 1048528,
      "componentType": 5126,
      "count": 21412,
      "max": [
        0.9786369800567627,
        0.999114990234375
      ],
      "min": [
        0.00048799999058246613,
        0.069642998278141022
      ],
      "type": "VEC2"
    },
    {
      "bufferView": 0,
      "byteOffset": 2860128,
      "componentType": 5125,
      "count": 113178,
      "max": [
        21411
      ],
      "min": [
        0
      ],
      "type": "SCALAR"
    }
  ],
  "asset": {
    "extras": {
      "author": "SCANTECH VIETNAM JSC (https://sketchfab.com/khoi3d)",
      "license": "CC-BY-4.0 (http://creativecommons.org/licenses/by/4.0/)",
      "source": "https://sketchfab.com/models/7b81d73516774445a3dc152e2a9be402",
      "title": "Vietnam Watermelon"
    },
    "generator": "Sketchfab-3.20.7",
    "version": "2.0"
  },
  "bufferViews": [
    {
      "buffer": 0,
      "byteLength": 3312840,
      "byteOffset": 0,
      "name": "floatBufferViews",
      "target": 34963
    },
    {
      "buffer": 0,
      "byteLength": 1219824,
      "byteOffset": 3312840,
      "byteStride": 8,
      "name": "floatBufferViews",
      "target": 34962
    },
    {
      "buffer": 0,
      "byteLength": 3659472,
      "byteOffset": 4532664,
      "byteStride": 12,
      "name": "floatBufferViews",
      "target": 34962
    },
    {
      "buffer": 0,
      "byteLength": 2439648,
      "byteOffset": 8192136,
      "byteStride": 16,
      "name": "floatBufferViews",
      "target": 34962
    }
  ],
  "buffers": [
    {
      "byteLength": 10631784,
      "uri": "scene.bin"
    }
  ],
  "extensionsUsed": [
    "KHR_materials_unlit"
  ],
  "images": [
    {
      "uri": "textures/material_0_baseColor.jpeg"
    },
    {
      "uri": "textures/material_0_emissive.jpeg"
    }
  ],
  "materials": [
    {
      "doubleSided": true,
      "emissiveFactor": [
        0,
        0,
        0
      ],
      "emissiveTexture": {
        "index": 1,
        "texCoord": 0
      },
      "extensions": {
        "KHR_materials_unlit": {}
      },
      "name": "material_0",
      "pbrMetallicRoughness": {
        "baseColorFactor": [
          1,
          1,
          1,
          1
        ],
        "baseColorTexture": {
          "index": 0,
          "texCoord": 0
        },
        "metallicFactor": 0,
        "roughnessFactor": 1
      }
    }
  ],
  "meshes": [
    {
      "primitives": [
        {
          "attributes": {
            "NORMAL": 1,
            "POSITION": 0,
            "TANGENT": 2,
            "TEXCOORD_0": 3
          },
          "indices": 4,
          "material": 0,
          "mode": 4
        }
      ]
    },
    {
      "primitives": [
        {
          "attributes": {
            "NORMAL": 6,
            "POSITION": 5,
            "TANGENT": 7,
            "TEXCOORD_0": 8
          },
          "indices": 9,
          "material": 0,
          "mode": 4
        }
      ]
    },
    {
      "primitives": [
        {
          "attributes": {
            "NORMAL": 11,
            "POSITION": 10,
            "TANGENT": 12,
            "TEXCOORD_0": 13
          },
          "indices": 14,
          "material": 0,
          "mode": 4
        }
      ]
    }
  ],
  "nodes": [
    {
      "children": [
        1
      ],
      "name": "RootNode (gltf orientation matrix)",
      "rotation": [
        -0.70710678118654746,
        -0,
        -0,
        0.70710678118654757
      ]
    },
    {
      "children": [
        2
      ],
      "name": "RootNode (model correction matrix)"
    },
    {
      "children": [
        3,
        4,
        5
      ],
      "name": "watermelon.obj.cleaner.gles"
    },
    {
      "mesh": 0,
      "name": ""
    },
    {
      "mesh": 1,
      "name": ""
    },
    {
      "mesh": 2,
      "name": ""
    }
  ],
  "samplers": [
    {
      "magFilter": 9729,
      "minFilter": 9987,
      "wrapS": 10497,
      "wrapT": 10497
    }
  ],
  "scene": 0,
  "scenes": [
    {
      "name": "OSG_Scene",
      "nodes": [
        0
      ]
    }
  ],
  "textures": [
    {
      "sampler": 0,
      "source": 0
    },
    {
      "sampler": 0,
      "source": 1
    }
  ]
}

