<svg version="1.1" class="highcharts-root" style="font-family: &quot;Lucida Grande&quot;, &quot;Lucida Sans Unicode&quot;, Arial, Helvetica, sans-serif; font-size: 12px;" xmlns="http://www.w3.org/2000/svg" width="554" height="600" viewBox="0 0 554 600"><g class="highcharts-series-group" data-z-index="3"><g class="highcharts-series highcharts-series-0 highcharts-map-series highcharts-color-0 highcharts-tracker" data-z-index="0.1" opacity="1" transform="translate(10,10) scale(1 1)" clip-path="url(#highcharts-wku8p57-70-)"><g transform="translate(127.70161290322585,522.0576036866358) scale(0.0529953917050691 -0.0529953917050691)" stroke-width="9.434782608695656"><path fill="rgba(32, 192, 255, 0.1)" d="M 1044 8632 L 1017 8613 L 966 8600 L 914 8571 L 892 8531 L 890 8499 L 912 8407 L 895 8383 L 849 8357 L 815 8361 L 794 8397 L 754 8395 L 695 8419 L 664 8412 L 617 8384 L 586 8386 L 525 8422 L 506 8442 L 494 8480 L 499 8530 L 521 8608 L 492 8637 L 441 8608 L 398 8600 L 293 8620 L 230 8646 L 249 8699 L 223 8744 L 272 8832 L 330 8793 L 373 8788 L 423 8771 L 442 8821 L 523 8781 L 552 8775 L 581 8801 L 584 8841 L 544 8923 L 556 8949 L 608 8955 L 662 8919 L 700 8962 L 725 8976 L 713 9038 L 755 9043 L 810 8982 L 863 8974 L 888 8914 L 955 8854 L 966 8830 L 965 8793 L 1019 8730 L 1036 8699 L 1026 8666 L 1044 8632 L 1044 8632 Z" stroke="#20c0ff" stroke-width="inherit" opacity="1" class="highcharts-point highcharts-null-point highcharts-color-0 highcharts-name-yên-bái"></path><path fill="rgba(32, 192, 255, 0.1)" d="M 849 8357 L 895 8383 L 912 8407 L 890 8499 L 892 8531 L 914 8571 L 966 8600 L 1017 8613 L 1044 8632 L 1088 8605 L 1127 8569 L 1185 8493 L 1203 8434 L 1236 8416 L 1277 8353 L 1282 8336 L 1262 8319 L 1252 8341 L 1210 8337 L 1203 8290 L 1163 8256 L 1178 8208 L 1163 8155 L 1179 8124 L 1194 8102 L 1196 8056 L 1171 8054 L 1112 8070 L 1046 8079 L 996 8122 L 927 8155 L 904 8190 L 879 8225 L 875 8299 L 849 8357 L 849 8357 Z" stroke="#20c0ff" stroke-width="inherit" opacity="1" class="highcharts-point highcharts-null-point highcharts-color-0 highcharts-name-phú-thọ"></path><path fill="rgba(32, 192, 255, 0.1)" d="M 2185 8009 L 2213 7981 L 2195 7984 L 2172 8020 L 2185 8009 L 2185 8009 M 2584 8045 L 2609 8045 L 2614 8029 L 2595 8024 L 2584 8045 L 2584 8045 M 2236 8035 L 2268 7973 L 2241 7974 L 2222 8007 L 2188 8018 L 2197 8071 L 2225 8060 L 2236 8035 L 2236 8035 M 2676 7992 L 2670 8043 L 2702 8052 L 2724 8097 L 2721 8070 L 2676 7992 L 2676 7992 M 2181 8107 L 2180 8083 L 2134 8093 L 2133 8111 L 2181 8107 L 2181 8107 M 2891 8126 L 2854 8086 L 2868 8119 L 2858 8146 L 2891 8126 L 2891 8126 M 2711 8159 L 2729 8155 L 2710 8093 L 2689 8067 L 2618 8052 L 2684 8103 L 2692 8144 L 2711 8159 L 2711 8159 M 2744 8216 L 2738 8191 L 2704 8172 L 2725 8213 L 2744 8216 L 2744 8216 M 2751 8136 L 2735 8142 L 2751 8190 L 2779 8212 L 2751 8136 L 2751 8136 M 2898 8387 L 2831 8357 L 2841 8369 L 2880 8394 L 2898 8387 L 2898 8387 M 3027 8427 L 2920 8389 L 2938 8419 L 3027 8431 L 3027 8427 L 3027 8427 M 2104 8134 L 2099 8134 L 2073 8140 L 2053 8151 L 1985 8159 L 1962 8167 L 1959 8192 L 1996 8216 L 2030 8263 L 2178 8241 L 2222 8242 L 2318 8269 L 2334 8309 L 2341 8355 L 2386 8389 L 2429 8397 L 2489 8424 L 2507 8447 L 2509 8483 L 2494 8513 L 2505 8534 L 2568 8577 L 2578 8567 L 2620 8602 L 2645 8603 L 2656 8566 L 2689 8556 L 2705 8576 L 2760 8575 L 2813 8590 L 2850 8614 L 2910 8602 L 2926 8574 L 3021 8491 L 2979 8459 L 2971 8514 L 2932 8522 L 2923 8495 L 2904 8495 L 2878 8517 L 2881 8469 L 2868 8466 L 2855 8433 L 2778 8412 L 2783 8382 L 2760 8376 L 2754 8349 L 2729 8348 L 2709 8383 L 2689 8348 L 2627 8369 L 2647 8344 L 2595 8328 L 2587 8268 L 2610 8263 L 2602 8213 L 2588 8188 L 2602 8148 L 2575 8131 L 2514 8128 L 2478 8091 L 2448 8075 L 2391 8099 L 2410 8125 L 2447 8150 L 2429 8152 L 2384 8135 L 2362 8149 L 2372 8124 L 2357 8093 L 2309 8090 L 2258 8121 L 2244 8117 L 2292 8078 L 2306 8053 L 2268 8057 L 2255 8037 L 2230 8077 L 2212 8073 L 2188 8091 L 2219 8100 L 2197 8132 L 2159 8144 L 2150 8126 L 2104 8134 L 2104 8134 M 2310 8028 L 2342 8015 L 2362 8023 L 2376 8001 L 2407 7994 L 2412 7969 L 2372 7953 L 2394 7941 L 2379 7907 L 2345 7943 L 2337 7937 L 2284 7990 L 2310 8028 L 2310 8028 M 2650 8284 L 2653 8328 L 2664 8331 L 2703 8299 L 2707 8278 L 2758 8291 L 2720 8244 L 2704 8247 L 2668 8199 L 2612 8163 L 2601 8171 L 2621 8221 L 2631 8272 L 2650 8284 L 2650 8284 Z" stroke="#20c0ff" stroke-width="inherit" opacity="1" class="highcharts-point highcharts-null-point highcharts-color-0 highcharts-name-quảng-ninh"></path><path fill="rgba(32, 192, 255, 0.1)" d="M 4090 1705 L 4105 1690 L 4061 1680 L 4030 1709 L 4050 1714 L 4090 1705 L 4090 1705 M 4141 1962 L 4126 1956 L 4073 1993 L 4079 2003 L 4124 2001 L 4141 1962 L 4141 1962 M 4123 2155 L 4118 2113 L 4151 2051 L 4188 2026 L 4173 2013 L 4174 1963 L 4159 1966 L 4139 2005 L 4154 2023 L 4138 2048 L 4119 2038 L 4119 2012 L 4094 2027 L 4125 2059 L 4108 2125 L 4066 2093 L 3996 2016 L 3997 1945 L 4016 1975 L 4028 1971 L 4017 1938 L 4029 1915 L 4065 1893 L 4066 1858 L 4100 1833 L 4066 1800 L 4006 1864 L 3983 1878 L 3958 1864 L 3978 1834 L 4000 1825 L 4006 1785 L 4026 1765 L 4010 1759 L 4000 1712 L 4015 1688 L 4004 1677 L 4017 1642 L 4006 1628 L 4009 1591 L 4035 1539 L 4063 1518 L 4048 1487 L 4057 1442 L 4019 1452 L 4012 1474 L 4013 1552 L 3981 1635 L 3972 1622 L 3982 1579 L 4008 1545 L 3999 1503 L 3969 1466 L 3955 1464 L 3952 1415 L 3975 1411 L 3999 1445 L 4005 1385 L 3940 1391 L 3919 1407 L 3904 1446 L 3880 1471 L 3787 1491 L 3767 1504 L 3716 1628 L 3693 1652 L 3650 1669 L 3640 1734 L 3622 1758 L 3611 1806 L 3609 1864 L 3616 1887 L 3688 1901 L 3731 1882 L 3745 1893 L 3762 1953 L 3758 1985 L 3780 2038 L 3826 2049 L 3873 2092 L 3921 2107 L 3957 2148 L 3987 2163 L 4078 2169 L 4123 2155 L 4123 2155 Z" stroke="#20c0ff" stroke-width="inherit" opacity="1" class="highcharts-point highcharts-null-point highcharts-color-0 highcharts-name-khánh-hòa"></path><path fill="rgba(32, 192, 255, 0.1)" d="M 2229 223 L 2194 240 L 2099 256 L 2203 257 L 2235 248 L 2229 223 L 2229 223 M 1583 274 L 1576 305 L 1655 405 L 1665 459 L 1729 452 L 1764 455 L 1784 478 L 1813 488 L 1889 484 L 1920 468 L 1950 425 L 2012 400 L 2021 359 L 2117 358 L 2139 375 L 2168 402 L 2179 372 L 2210 398 L 2230 398 L 2264 344 L 2270 280 L 2256 257 L 2204 267 L 2127 266 L 1999 286 L 1941 301 L 1895 286 L 1841 285 L 1808 272 L 1770 270 L 1718 287 L 1684 287 L 1660 264 L 1619 266 L 1583 274 L 1583 274 Z" stroke="#20c0ff" stroke-width="inherit" opacity="1" class="highcharts-point highcharts-null-point highcharts-color-0 highcharts-name-tiền-giang"></path><path fill="rgba(32, 192, 255, 0.1)" d="M 2565 378 L 2539 344 L 2517 334 L 2482 294 L 2476 343 L 2531 367 L 2543 398 L 2565 378 L 2565 378 M 2432 432 L 2442 449 L 2435 522 L 2501 545 L 2521 560 L 2526 591 L 2591 622 L 2620 621 L 2628 577 L 2644 562 L 2677 565 L 2748 646 L 2766 644 L 2791 613 L 2837 510 L 2843 480 L 2803 435 L 2743 406 L 2660 391 L 2616 335 L 2556 354 L 2575 376 L 2545 407 L 2521 399 L 2492 416 L 2441 404 L 2436 424 L 2432 432 L 2432 432 M 2419 515 L 2435 499 L 2426 469 L 2411 474 L 2415 514 L 2419 515 L 2419 515 Z" stroke="#20c0ff" stroke-width="inherit" opacity="1" class="highcharts-point highcharts-null-point highcharts-color-0 highcharts-name-bà-rịa---vũng-tàu"></path><path fill="rgba(32, 192, 255, 0.1)" d="M 3845 449 L 3826 439 L 3816 458 L 3828 474 L 3845 449 L 3845 449 M 2843 480 L 2837 510 L 2791 613 L 2824 647 L 2844 683 L 2842 728 L 2819 778 L 2800 793 L 2761 793 L 2727 820 L 2784 954 L 2826 1033 L 2855 1058 L 2914 1034 L 2961 1025 L 3145 1017 L 3176 995 L 3177 951 L 3205 957 L 3248 1003 L 3319 1022 L 3380 1069 L 3365 1115 L 3367 1152 L 3416 1183 L 3508 1187 L 3556 1171 L 3584 1215 L 3640 1203 L 3654 1158 L 3689 1139 L 3696 1101 L 3766 1088 L 3794 1041 L 3758 1048 L 3708 1023 L 3687 991 L 3667 935 L 3614 942 L 3557 932 L 3511 901 L 3482 838 L 3407 815 L 3390 764 L 3358 734 L 3328 762 L 3218 736 L 3188 699 L 3167 629 L 3141 575 L 3096 589 L 3057 587 L 3014 569 L 2984 543 L 2901 503 L 2843 480 L 2843 480 Z" stroke="#20c0ff" stroke-width="inherit" opacity="1" class="highcharts-point highcharts-null-point highcharts-color-0 highcharts-name-bình-thuận"></path><path fill="rgba(32, 192, 255, 0.1)" d="M 2380 428 L 2361 368 L 2372 378 L 2402 353 L 2337 328 L 2327 368 L 2340 397 L 2337 426 L 2365 438 L 2380 428 L 2380 428 M 2361 481 L 2361 454 L 2341 479 L 2347 439 L 2313 468 L 2328 522 L 2366 494 L 2361 481 L 2361 481 M 2436 424 L 2412 409 L 2432 432 L 2436 424 L 2436 424 M 1954 774 L 1994 835 L 2002 878 L 2063 887 L 2107 824 L 2139 795 L 2207 701 L 2224 696 L 2270 711 L 2297 706 L 2330 652 L 2330 615 L 2292 621 L 2264 608 L 2238 622 L 2241 572 L 2298 540 L 2339 547 L 2391 500 L 2406 472 L 2426 439 L 2398 404 L 2372 458 L 2376 496 L 2331 534 L 2293 518 L 2252 559 L 2226 538 L 2252 498 L 2237 471 L 2262 496 L 2237 543 L 2254 544 L 2307 506 L 2301 466 L 2322 444 L 2319 413 L 2327 393 L 2296 402 L 2316 372 L 2302 353 L 2267 376 L 2243 413 L 2237 471 L 2232 460 L 2231 508 L 2207 533 L 2160 523 L 2135 545 L 2071 575 L 2050 594 L 2070 643 L 2072 678 L 2037 732 L 1954 774 L 1954 774 Z" stroke="#20c0ff" stroke-width="inherit" opacity="1" class="highcharts-point highcharts-null-point highcharts-color-0 highcharts-name-hồ-chí-minh"></path><path fill="rgba(32, 192, 255, 0.1)" d="M 2089 -64 L 2072 -64 L 2055 -37 L 2000 5 L 2047 -17 L 2089 -64 L 2089 -64 M 1779 228 L 1746 244 L 1660 264 L 1684 287 L 1718 287 L 1770 270 L 1808 272 L 1841 285 L 1895 286 L 1941 301 L 1999 286 L 2041 260 L 2216 202 L 2272 171 L 2268 136 L 2229 95 L 2205 91 L 2205 116 L 2179 79 L 2162 35 L 2123 41 L 2091 66 L 2055 81 L 2015 120 L 1954 216 L 1933 237 L 1905 246 L 1947 211 L 1961 168 L 2029 80 L 2101 39 L 2140 10 L 2200 -21 L 2190 -51 L 2175 -30 L 2172 -56 L 2138 -79 L 2103 -61 L 2060 -15 L 1980 35 L 1798 221 L 1779 228 L 1779 228 Z" stroke="#20c0ff" stroke-width="inherit" opacity="1" class="highcharts-point highcharts-null-point highcharts-color-0 highcharts-name-bến-tre"></path><path fill="rgba(32, 192, 255, 0.1)" d="M 2184 -859 L 2162 -870 L 2174 -899 L 2135 -902 L 2133 -933 L 2104 -912 L 2132 -874 L 2176 -849 L 2184 -859 L 2184 -859 M 1772 -132 L 1807 -182 L 1847 -224 L 1907 -249 L 1901 -281 L 1872 -287 L 1876 -269 L 1838 -232 L 1859 -265 L 1837 -260 L 1786 -187 L 1772 -132 L 1772 -132 M 1622 -8 L 1747 -131 L 1762 -172 L 1838 -283 L 1844 -344 L 1818 -373 L 1835 -409 L 1708 -449 L 1599 -493 L 1573 -413 L 1550 -394 L 1471 -399 L 1403 -374 L 1387 -344 L 1381 -233 L 1457 -211 L 1543 -158 L 1563 -153 L 1622 -8 L 1622 -8 Z" stroke="#20c0ff" stroke-width="inherit" opacity="1" class="highcharts-point highcharts-null-point highcharts-color-0 highcharts-name-sóc-trăng"></path><path fill="rgba(32, 192, 255, 0.1)" d="M -11 8878 L -31 8853 L -35 8827 L -25 8771 L -61 8830 L -85 8847 L -87 8877 L -116 8914 L -126 8955 L -153 8971 L -178 8965 L -218 8915 L -220 8891 L -279 8921 L -305 8919 L -335 8947 L -372 8966 L -433 8958 L -453 8973 L -462 9008 L -505 9010 L -518 9030 L -523 9078 L -550 9124 L -601 9165 L -639 9181 L -691 9247 L -731 9279 L -765 9276 L -819 9287 L -856 9280 L -815 9326 L -833 9348 L -807 9364 L -773 9425 L -724 9410 L -711 9373 L -676 9387 L -658 9369 L -604 9353 L -564 9319 L -523 9306 L -501 9289 L -469 9216 L -404 9179 L -366 9181 L -366 9214 L -299 9251 L -307 9281 L -299 9302 L -239 9337 L -223 9354 L -183 9433 L -159 9429 L -121 9396 L -119 9360 L -90 9308 L -52 9280 L -20 9329 L 15 9278 L 20 9233 L -2 9207 L 4 9185 L 48 9159 L 113 9160 L 149 9118 L 128 9063 L 79 9011 L 26 8985 L 0 8940 L -11 8878 L -11 8878 Z" stroke="#20c0ff" stroke-width="inherit" opacity="1" class="highcharts-point highcharts-null-point highcharts-color-0 highcharts-name-lai-châu"></path><path fill="rgba(32, 192, 255, 0.1)" d="M -25 8771 L -35 8827 L -31 8853 L -11 8878 L 13 8884 L 42 8856 L 84 8751 L 168 8656 L 198 8638 L 230 8646 L 293 8620 L 398 8600 L 441 8608 L 492 8637 L 521 8608 L 499 8530 L 494 8480 L 506 8442 L 525 8422 L 586 8386 L 617 8384 L 664 8412 L 695 8419 L 754 8395 L 794 8397 L 815 8361 L 849 8357 L 875 8299 L 879 8225 L 904 8190 L 886 8160 L 885 8132 L 907 8089 L 976 8013 L 1027 7978 L 1020 7948 L 949 7917 L 869 7916 L 856 7893 L 859 7841 L 813 7804 L 779 7811 L 721 7853 L 701 7854 L 691 7867 L 617 7897 L 589 7943 L 546 7948 L 509 7984 L 481 8028 L 457 8042 L 430 8037 L 412 8065 L 342 8089 L 317 8087 L 285 8050 L 245 8045 L 123 7997 L 107 7957 L 111 7935 L 75 7915 L 80 7878 L 46 7869 L -14 7924 L -70 7936 L -118 7989 L -162 7965 L -231 7994 L -256 7995 L -254 8042 L -243 8095 L -210 8140 L -213 8173 L -191 8181 L -149 8160 L -109 8174 L -119 8238 L -106 8267 L -99 8316 L -106 8344 L -131 8365 L -147 8419 L -107 8446 L -86 8491 L -44 8532 L -20 8568 L -14 8614 L -22 8673 L -25 8771 L -25 8771 Z" stroke="#20c0ff" stroke-width="inherit" opacity="1" class="highcharts-point highcharts-null-point highcharts-color-0 highcharts-name-sơn-la"></path><path fill="rgba(32, 192, 255, 0.1)" d="M 1600 8358 L 1550 8384 L 1498 8383 L 1475 8423 L 1404 8475 L 1363 8515 L 1325 8562 L 1322 8609 L 1333 8752 L 1349 8813 L 1367 8818 L 1396 8857 L 1458 8872 L 1496 8834 L 1500 8764 L 1516 8695 L 1542 8714 L 1583 8723 L 1653 8769 L 1669 8794 L 1729 8814 L 1732 8777 L 1749 8709 L 1776 8695 L 1826 8629 L 1828 8616 L 1796 8582 L 1768 8537 L 1752 8574 L 1699 8582 L 1680 8564 L 1703 8487 L 1689 8436 L 1667 8420 L 1634 8417 L 1600 8358 L 1600 8358 Z" stroke="#20c0ff" stroke-width="inherit" opacity="1" class="highcharts-point highcharts-null-point highcharts-color-0 highcharts-name-thái-nguyên"></path><path fill="rgba(32, 192, 255, 0.1)" d="M 1498 8383 L 1550 8384 L 1600 8358 L 1614 8329 L 1617 8299 L 1598 8258 L 1606 8211 L 1663 8151 L 1659 8111 L 1596 8092 L 1585 8049 L 1604 8034 L 1596 8000 L 1602 7971 L 1627 7961 L 1635 7921 L 1662 7907 L 1648 7888 L 1603 7881 L 1531 7858 L 1510 7800 L 1488 7824 L 1436 7851 L 1390 7941 L 1334 7980 L 1317 8003 L 1333 8054 L 1315 8107 L 1287 8124 L 1226 8132 L 1179 8124 L 1163 8155 L 1178 8208 L 1163 8256 L 1203 8290 L 1210 8337 L 1252 8341 L 1262 8319 L 1281 8269 L 1321 8239 L 1419 8234 L 1492 8194 L 1504 8248 L 1494 8310 L 1498 8383 L 1498 8383 Z" stroke="#20c0ff" stroke-width="inherit" opacity="1" class="highcharts-point highcharts-null-point highcharts-color-0 highcharts-name-hà-nội"></path><path fill="rgba(32, 192, 255, 0.1)" d="M 1761 8117 L 1812 8108 L 1848 8112 L 1867 8129 L 1872 8171 L 1860 8217 L 1882 8257 L 1920 8283 L 1970 8291 L 2008 8280 L 2030 8263 L 1996 8216 L 1959 8192 L 1962 8167 L 1985 8159 L 2053 8151 L 2073 8140 L 2060 8094 L 2026 8074 L 2025 8039 L 1999 8018 L 2006 7990 L 2030 7977 L 2026 7961 L 1975 7915 L 1945 7914 L 1835 7896 L 1789 7942 L 1752 7968 L 1741 7995 L 1766 8064 L 1761 8117 L 1761 8117 Z" stroke="#20c0ff" stroke-width="inherit" opacity="1" class="highcharts-point highcharts-null-point highcharts-color-0 highcharts-name-hải-dương"></path><path fill="rgba(32, 192, 255, 0.1)" d="M 1860 8217 L 1872 8171 L 1867 8129 L 1848 8112 L 1812 8108 L 1761 8117 L 1709 8119 L 1659 8111 L 1663 8151 L 1606 8211 L 1598 8258 L 1617 8299 L 1675 8273 L 1802 8252 L 1860 8217 L 1860 8217 Z" stroke="#20c0ff" stroke-width="inherit" opacity="1" class="highcharts-point highcharts-null-point highcharts-color-0 highcharts-name-bắc-ninh"></path><path fill="rgba(32, 192, 255, 0.1)" d="M 1659 8111 L 1709 8119 L 1761 8117 L 1766 8064 L 1741 7995 L 1752 7968 L 1789 7942 L 1835 7896 L 1800 7874 L 1753 7874 L 1735 7848 L 1699 7837 L 1679 7863 L 1678 7904 L 1662 7907 L 1635 7921 L 1627 7961 L 1602 7971 L 1596 8000 L 1604 8034 L 1585 8049 L 1596 8092 L 1659 8111 L 1659 8111 Z" stroke="#20c0ff" stroke-width="inherit" opacity="1" class="highcharts-point highcharts-null-point highcharts-color-0 highcharts-name-hưng-yên"></path><path fill="rgba(32, 192, 255, 0.1)" d="M 1363 8515 L 1404 8475 L 1475 8423 L 1498 8383 L 1494 8310 L 1504 8248 L 1492 8194 L 1419 8234 L 1321 8239 L 1281 8269 L 1262 8319 L 1282 8336 L 1277 8353 L 1236 8416 L 1203 8434 L 1185 8493 L 1237 8479 L 1283 8480 L 1337 8498 L 1363 8515 L 1363 8515 Z" stroke="#20c0ff" stroke-width="inherit" opacity="1" class="highcharts-point highcharts-null-point highcharts-color-0 highcharts-name-vĩnh-phúc"></path><path fill="rgba(32, 192, 255, 0.1)" d="M 1739 7409 L 1718 7359 L 1684 7381 L 1709 7409 L 1695 7433 L 1648 7441 L 1604 7471 L 1564 7482 L 1490 7527 L 1342 7652 L 1356 7665 L 1383 7659 L 1421 7628 L 1448 7618 L 1462 7629 L 1454 7682 L 1500 7707 L 1549 7691 L 1591 7650 L 1625 7631 L 1634 7591 L 1699 7560 L 1724 7570 L 1767 7544 L 1765 7478 L 1739 7409 L 1739 7409 Z" stroke="#20c0ff" stroke-width="inherit" opacity="1" class="highcharts-point highcharts-null-point highcharts-color-0 highcharts-name-ninh-bình"></path><path fill="rgba(32, 192, 255, 0.1)" d="M 1625 7631 L 1591 7650 L 1549 7691 L 1526 7745 L 1510 7800 L 1531 7858 L 1603 7881 L 1648 7888 L 1662 7907 L 1678 7904 L 1679 7863 L 1699 7837 L 1735 7848 L 1752 7807 L 1774 7786 L 1786 7745 L 1707 7739 L 1677 7687 L 1637 7691 L 1626 7671 L 1625 7631 L 1625 7631 Z" stroke="#20c0ff" stroke-width="inherit" opacity="1" class="highcharts-point highcharts-null-point highcharts-color-0 highcharts-name-hà-nam"></path><path fill="rgba(32, 192, 255, 0.1)" d="M 1510 7800 L 1526 7745 L 1549 7691 L 1500 7707 L 1454 7682 L 1462 7629 L 1448 7618 L 1421 7628 L 1383 7659 L 1356 7665 L 1342 7652 L 1282 7665 L 1180 7717 L 1114 7762 L 1081 7805 L 1062 7815 L 1013 7804 L 925 7815 L 859 7841 L 856 7893 L 869 7916 L 949 7917 L 1020 7948 L 1027 7978 L 976 8013 L 907 8089 L 885 8132 L 886 8160 L 904 8190 L 927 8155 L 996 8122 L 1046 8079 L 1112 8070 L 1171 8054 L 1196 8056 L 1194 8102 L 1179 8124 L 1226 8132 L 1287 8124 L 1315 8107 L 1333 8054 L 1317 8003 L 1334 7980 L 1390 7941 L 1436 7851 L 1488 7824 L 1510 7800 L 1510 7800 Z" stroke="#20c0ff" stroke-width="inherit" opacity="1" class="highcharts-point highcharts-null-point highcharts-color-0 highcharts-name-hòa-bình"></path><path fill="rgba(32, 192, 255, 0.1)" d="M 1617 8299 L 1614 8329 L 1600 8358 L 1634 8417 L 1667 8420 L 1689 8436 L 1703 8487 L 1680 8564 L 1699 8582 L 1752 8574 L 1768 8537 L 1767 8498 L 1854 8469 L 1896 8430 L 1928 8421 L 1970 8436 L 1990 8465 L 2012 8520 L 2037 8551 L 2086 8568 L 2121 8561 L 2166 8525 L 2210 8557 L 2229 8558 L 2242 8520 L 2287 8450 L 2338 8451 L 2358 8400 L 2386 8389 L 2341 8355 L 2334 8309 L 2318 8269 L 2222 8242 L 2178 8241 L 2030 8263 L 2008 8280 L 1970 8291 L 1920 8283 L 1882 8257 L 1860 8217 L 1802 8252 L 1675 8273 L 1617 8299 L 1617 8299 Z" stroke="#20c0ff" stroke-width="inherit" opacity="1" class="highcharts-point highcharts-null-point highcharts-color-0 highcharts-name-bắc-giang"></path><path fill="rgba(32, 192, 255, 0.1)" d="M 1786 7745 L 1774 7786 L 1752 7807 L 1735 7848 L 1753 7874 L 1800 7874 L 1835 7896 L 1945 7914 L 1967 7847 L 1982 7827 L 2029 7836 L 2067 7862 L 2091 7840 L 2087 7821 L 2016 7784 L 2050 7772 L 2059 7738 L 2047 7721 L 2069 7716 L 2055 7657 L 2069 7589 L 2062 7581 L 2039 7601 L 2039 7601 L 2020 7617 L 2007 7607 L 1971 7597 L 1900 7653 L 1851 7627 L 1842 7638 L 1847 7683 L 1810 7688 L 1807 7733 L 1786 7745 L 1786 7745 Z" stroke="#20c0ff" stroke-width="inherit" opacity="1" class="highcharts-point highcharts-null-point highcharts-color-0 highcharts-name-thái-bình"></path><path fill="rgba(32, 192, 255, 0.1)" d="M 2635 1206 L 2616 1251 L 2618 1271 L 2648 1318 L 2694 1343 L 2732 1338 L 2774 1359 L 2818 1370 L 2860 1398 L 2918 1459 L 2942 1458 L 2950 1432 L 2979 1417 L 3043 1428 L 3063 1414 L 3072 1377 L 3105 1380 L 3133 1360 L 3177 1399 L 3198 1441 L 3196 1486 L 3147 1541 L 3121 1579 L 3130 1622 L 3170 1637 L 3216 1642 L 3248 1656 L 3301 1646 L 3314 1670 L 3373 1708 L 3438 1712 L 3479 1748 L 3502 1754 L 3566 1734 L 3622 1758 L 3640 1734 L 3650 1669 L 3625 1625 L 3632 1582 L 3625 1516 L 3594 1417 L 3602 1381 L 3629 1346 L 3623 1321 L 3576 1270 L 3584 1215 L 3556 1171 L 3508 1187 L 3416 1183 L 3367 1152 L 3365 1115 L 3380 1069 L 3319 1022 L 3248 1003 L 3205 957 L 3177 951 L 3176 995 L 3145 1017 L 2961 1025 L 2914 1034 L 2855 1058 L 2794 1088 L 2738 1098 L 2737 1152 L 2701 1163 L 2683 1203 L 2635 1206 L 2635 1206 Z" stroke="#20c0ff" stroke-width="inherit" opacity="1" class="highcharts-point highcharts-null-point highcharts-color-0 highcharts-name-lâm-đồng"></path><path fill="rgba(32, 192, 255, 0.1)" d="M 2694 1343 L 2648 1318 L 2618 1271 L 2616 1251 L 2635 1206 L 2582 1178 L 2514 1156 L 2488 1139 L 2474 1090 L 2447 1049 L 2388 997 L 2365 998 L 2278 1030 L 2253 1034 L 2210 1013 L 2212 1042 L 2188 1050 L 2159 1020 L 2134 1066 L 2138 1104 L 2125 1117 L 2067 1143 L 2062 1160 L 2025 1193 L 2043 1199 L 2030 1266 L 2003 1284 L 1977 1334 L 1993 1401 L 2006 1420 L 1973 1498 L 2008 1502 L 2031 1485 L 2053 1501 L 2149 1492 L 2144 1503 L 2195 1500 L 2229 1560 L 2268 1572 L 2349 1571 L 2394 1594 L 2519 1727 L 2573 1752 L 2588 1572 L 2607 1521 L 2648 1493 L 2670 1465 L 2681 1415 L 2701 1368 L 2694 1343 L 2694 1343 Z" stroke="#20c0ff" stroke-width="inherit" opacity="1" class="highcharts-point highcharts-null-point highcharts-color-0 highcharts-name-bình-phước"></path><path fill="rgba(32, 192, 255, 0.1)" d="M 2003 1284 L 2030 1266 L 2043 1199 L 2025 1193 L 2001 1149 L 1964 1107 L 1938 1039 L 1941 987 L 1967 931 L 1996 902 L 2002 878 L 1994 835 L 1954 774 L 1910 805 L 1897 776 L 1838 758 L 1815 765 L 1827 769 L 1807 826 L 1786 848 L 1754 827 L 1736 854 L 1672 925 L 1618 946 L 1608 982 L 1578 998 L 1597 1088 L 1584 1186 L 1548 1200 L 1538 1216 L 1549 1243 L 1587 1270 L 1642 1257 L 1677 1304 L 1700 1351 L 1771 1334 L 1801 1333 L 1865 1310 L 1897 1281 L 1945 1293 L 1988 1272 L 2003 1284 L 2003 1284 Z" stroke="#20c0ff" stroke-width="inherit" opacity="1" class="highcharts-point highcharts-null-point highcharts-color-0 highcharts-name-tây-ninh"></path><path fill="rgba(32, 192, 255, 0.1)" d="M 3712 2680 L 3773 2667 L 3821 2671 L 3895 2705 L 3953 2769 L 4006 2789 L 4021 2721 L 4049 2701 L 4049 2666 L 4018 2718 L 3988 2751 L 4013 2695 L 4044 2650 L 4063 2661 L 4056 2629 L 4083 2619 L 4068 2581 L 4038 2586 L 4054 2615 L 4027 2636 L 4005 2615 L 4006 2564 L 4041 2535 L 4052 2495 L 4027 2495 L 4053 2449 L 4066 2495 L 4072 2467 L 4064 2374 L 4110 2301 L 4180 2215 L 4176 2170 L 4146 2179 L 4123 2155 L 4078 2169 L 3987 2163 L 3957 2148 L 3921 2107 L 3873 2092 L 3824 2111 L 3764 2124 L 3714 2145 L 3647 2193 L 3600 2266 L 3602 2298 L 3648 2348 L 3707 2382 L 3751 2427 L 3735 2477 L 3735 2518 L 3711 2587 L 3712 2680 L 3712 2680 Z" stroke="#20c0ff" stroke-width="inherit" opacity="1" class="highcharts-point highcharts-null-point highcharts-color-0 highcharts-name-phú-yên"></path><path fill="rgba(32, 192, 255, 0.1)" d="M 3953 2769 L 3895 2705 L 3821 2671 L 3773 2667 L 3712 2680 L 3708 2759 L 3697 2819 L 3672 2873 L 3638 2917 L 3626 2953 L 3630 3001 L 3586 3060 L 3569 3115 L 3567 3163 L 3595 3278 L 3602 3339 L 3598 3391 L 3586 3441 L 3675 3494 L 3725 3505 L 3808 3501 L 3859 3510 L 3879 3502 L 3886 3438 L 3878 3433 L 3919 3341 L 3919 3301 L 3935 3258 L 3958 3234 L 3973 3183 L 3966 3172 L 4001 3108 L 3955 3136 L 3962 3110 L 3992 3087 L 4013 3035 L 4024 2953 L 4054 2920 L 4053 2834 L 4029 2831 L 4030 2882 L 4014 2930 L 4001 2871 L 4020 2847 L 3997 2822 L 4006 2789 L 3953 2769 L 3953 2769 Z" stroke="#20c0ff" stroke-width="inherit" opacity="1" class="highcharts-point highcharts-null-point highcharts-color-0 highcharts-name-bình-định"></path><path fill="rgba(32, 192, 255, 0.1)" d="M 2073 8140 L 2099 8134 L 2104 8134 L 2122 8091 L 2177 8077 L 2165 8036 L 2151 8051 L 2139 8036 L 2176 7994 L 2157 7968 L 2201 7925 L 2214 7886 L 2187 7912 L 2169 7900 L 2115 7895 L 2143 7872 L 2109 7850 L 2067 7862 L 2029 7836 L 1982 7827 L 1967 7847 L 1945 7914 L 1975 7915 L 2026 7961 L 2030 7977 L 2006 7990 L 1999 8018 L 2025 8039 L 2026 8074 L 2060 8094 L 2073 8140 L 2073 8140 Z" stroke="#20c0ff" stroke-width="inherit" opacity="1" class="highcharts-point highcharts-null-point highcharts-color-0 highcharts-name-hải-phòng"></path><path fill="rgba(32, 192, 255, 0.1)" d="M 3551 3473 L 3586 3441 L 3598 3391 L 3602 3339 L 3595 3278 L 3567 3163 L 3569 3115 L 3586 3060 L 3630 3001 L 3626 2953 L 3638 2917 L 3672 2873 L 3697 2819 L 3708 2759 L 3712 2680 L 3711 2587 L 3735 2518 L 3735 2477 L 3751 2427 L 3707 2382 L 3648 2348 L 3602 2298 L 3600 2266 L 3494 2292 L 3463 2322 L 3434 2415 L 3416 2451 L 3383 2483 L 3198 2546 L 3143 2545 L 3069 2516 L 2979 2518 L 2892 2505 L 2807 2452 L 2838 2531 L 2841 2554 L 2830 2652 L 2769 2767 L 2718 2833 L 2711 2897 L 2719 2935 L 2780 2976 L 2834 3030 L 2869 3095 L 2913 3131 L 2961 3153 L 3221 3240 L 3298 3277 L 3351 3316 L 3404 3380 L 3414 3416 L 3402 3456 L 3462 3449 L 3551 3473 L 3551 3473 Z" stroke="#20c0ff" stroke-width="inherit" opacity="1" class="highcharts-point highcharts-null-point highcharts-color-0 highcharts-name-gia-lai"></path><path fill="rgba(32, 192, 255, 0.1)" d="M 3586 3441 L 3551 3473 L 3516 3578 L 3499 3608 L 3439 3631 L 3413 3657 L 3386 3708 L 3316 3769 L 3337 3797 L 3300 3864 L 3308 3889 L 3342 3943 L 3377 3967 L 3448 3974 L 3576 4019 L 3644 4030 L 3658 3978 L 3668 4030 L 3690 4055 L 3699 4015 L 3731 3987 L 3734 3951 L 3781 3925 L 3752 3895 L 3760 3783 L 3778 3726 L 3830 3611 L 3880 3544 L 3891 3499 L 3879 3502 L 3859 3510 L 3808 3501 L 3725 3505 L 3675 3494 L 3586 3441 L 3586 3441 Z" stroke="#20c0ff" stroke-width="inherit" opacity="1" class="highcharts-point highcharts-null-point highcharts-color-0 highcharts-name-quảng-ngãi"></path><path fill="rgba(32, 192, 255, 0.1)" d="M 2435 522 L 2426 550 L 2419 515 L 2415 514 L 2411 514 L 2406 472 L 2391 500 L 2339 547 L 2298 540 L 2241 572 L 2238 622 L 2264 608 L 2292 621 L 2330 615 L 2330 652 L 2297 706 L 2294 728 L 2261 774 L 2259 808 L 2290 829 L 2327 809 L 2352 811 L 2382 836 L 2396 879 L 2366 947 L 2388 997 L 2447 1049 L 2474 1090 L 2488 1139 L 2514 1156 L 2582 1178 L 2635 1206 L 2683 1203 L 2701 1163 L 2737 1152 L 2738 1098 L 2794 1088 L 2855 1058 L 2826 1033 L 2784 954 L 2727 820 L 2761 793 L 2800 793 L 2819 778 L 2842 728 L 2844 683 L 2824 647 L 2791 613 L 2766 644 L 2748 646 L 2677 565 L 2644 562 L 2628 577 L 2620 621 L 2591 622 L 2526 591 L 2521 560 L 2501 545 L 2435 522 L 2435 522 Z" stroke="#20c0ff" stroke-width="inherit" opacity="1" class="highcharts-point highcharts-null-point highcharts-color-0 highcharts-name-đồng-nai"></path><path fill="rgba(32, 192, 255, 0.1)" d="M 1547 287 L 1475 351 L 1425 358 L 1390 380 L 1366 400 L 1333 446 L 1259 482 L 1241 501 L 1235 567 L 1189 567 L 1146 623 L 1123 671 L 1119 705 L 1150 699 L 1187 671 L 1204 674 L 1226 717 L 1264 758 L 1310 742 L 1346 749 L 1356 726 L 1395 697 L 1440 643 L 1595 498 L 1636 468 L 1665 459 L 1655 405 L 1576 305 L 1583 274 L 1582 274 L 1547 287 L 1547 287 Z" stroke="#20c0ff" stroke-width="inherit" opacity="1" class="highcharts-point highcharts-null-point highcharts-color-0 highcharts-name-đồng-tháp"></path><path fill="rgba(32, 192, 255, 0.1)" d="M 1547 287 L 1583 274 L 1607 230 L 1628 215 L 1627 179 L 1584 154 L 1525 172 L 1503 187 L 1478 175 L 1470 143 L 1425 127 L 1348 110 L 1274 84 L 1202 156 L 1142 198 L 1160 224 L 1209 252 L 1234 224 L 1279 253 L 1311 254 L 1326 297 L 1354 347 L 1390 380 L 1425 358 L 1475 351 L 1547 287 L 1547 287 Z" stroke="#20c0ff" stroke-width="inherit" opacity="1" class="highcharts-point highcharts-null-point highcharts-color-0 highcharts-name-cần-thơ"></path><path fill="rgba(32, 192, 255, 0.1)" d="M 2232 460 L 2224 438 L 2155 406 L 2139 375 L 2117 358 L 2021 359 L 2012 400 L 1950 425 L 1920 468 L 1889 484 L 1813 488 L 1784 478 L 1764 455 L 1729 452 L 1665 459 L 1636 468 L 1595 498 L 1440 643 L 1395 697 L 1356 726 L 1346 749 L 1425 766 L 1472 793 L 1512 797 L 1562 727 L 1591 668 L 1619 660 L 1642 710 L 1704 654 L 1744 637 L 1804 629 L 1820 615 L 1801 686 L 1783 720 L 1786 764 L 1815 765 L 1838 758 L 1897 776 L 1910 805 L 1954 774 L 2037 732 L 2072 678 L 2070 643 L 2050 594 L 2071 575 L 2135 545 L 2160 523 L 2207 533 L 2231 508 L 2232 460 L 2232 460 Z" stroke="#20c0ff" stroke-width="inherit" opacity="1" class="highcharts-point highcharts-null-point highcharts-color-0 highcharts-name-long-an"></path><path fill="rgba(32, 192, 255, 0.1)" d="M 1576 56 L 1576 38 L 1622 -8 L 1563 -153 L 1543 -158 L 1457 -211 L 1381 -233 L 1303 -250 L 1252 -251 L 1253 -210 L 1230 -180 L 1249 -148 L 1333 -69 L 1351 -15 L 1344 17 L 1274 84 L 1348 110 L 1425 127 L 1470 143 L 1533 100 L 1576 56 L 1576 56 Z" stroke="#20c0ff" stroke-width="inherit" opacity="1" class="highcharts-point highcharts-null-point highcharts-color-0 highcharts-name-hậu-giang"></path><path fill="rgba(32, 192, 255, 0.1)" d="M 1252 -251 L 1303 -250 L 1381 -233 L 1387 -344 L 1403 -374 L 1471 -399 L 1550 -394 L 1573 -413 L 1599 -493 L 1520 -526 L 1359 -586 L 1290 -650 L 1277 -675 L 1257 -638 L 1223 -627 L 1208 -605 L 1193 -537 L 1173 -530 L 1172 -508 L 1198 -463 L 1176 -438 L 1189 -408 L 1171 -383 L 1184 -369 L 1172 -335 L 1193 -303 L 1180 -250 L 1190 -237 L 1252 -251 L 1252 -251 Z" stroke="#20c0ff" stroke-width="inherit" opacity="1" class="highcharts-point highcharts-null-point highcharts-color-0 highcharts-name-bạc-liêu"></path><path fill="rgba(32, 192, 255, 0.1)" d="M 1660 264 L 1746 244 L 1779 228 L 1814 186 L 1834 142 L 1872 110 L 1843 94 L 1830 70 L 1789 44 L 1793 17 L 1739 -1 L 1691 -29 L 1624 36 L 1576 56 L 1533 100 L 1470 143 L 1478 175 L 1503 187 L 1525 172 L 1584 154 L 1627 179 L 1628 215 L 1607 230 L 1583 274 L 1619 266 L 1660 264 L 1660 264 Z" stroke="#20c0ff" stroke-width="inherit" opacity="1" class="highcharts-point highcharts-null-point highcharts-color-0 highcharts-name-vĩnh-long"></path><path fill="rgba(32, 192, 255, 0.1)" d="M 863 8974 L 810 8982 L 755 9043 L 713 9038 L 690 9025 L 690 9092 L 660 9121 L 614 9147 L 586 9256 L 608 9285 L 574 9327 L 546 9335 L 533 9358 L 592 9396 L 663 9463 L 681 9443 L 702 9453 L 738 9444 L 782 9465 L 814 9506 L 847 9527 L 850 9549 L 830 9645 L 873 9670 L 879 9702 L 930 9700 L 954 9722 L 1008 9753 L 1114 9777 L 1127 9817 L 1157 9846 L 1178 9851 L 1192 9816 L 1231 9785 L 1259 9779 L 1288 9726 L 1318 9706 L 1330 9656 L 1313 9647 L 1305 9601 L 1292 9584 L 1261 9583 L 1211 9520 L 1172 9492 L 1173 9476 L 1274 9418 L 1300 9385 L 1321 9336 L 1354 9284 L 1308 9276 L 1201 9290 L 1101 9324 L 1083 9316 L 1059 9234 L 1023 9186 L 1000 9111 L 981 9100 L 938 9108 L 926 9093 L 919 9045 L 863 8974 L 863 8974 Z" stroke="#20c0ff" stroke-width="inherit" opacity="1" class="highcharts-point highcharts-null-point highcharts-color-0 highcharts-name-hà-giang"></path><path fill="rgba(32, 192, 255, 0.1)" d="M 2007 7607 L 2039 7601 L 2039 7601 L 2039 7601 L 2054 7557 L 2009 7546 L 1933 7536 L 1909 7521 L 1871 7465 L 1840 7430 L 1772 7373 L 1735 7359 L 1739 7409 L 1765 7478 L 1767 7544 L 1724 7570 L 1699 7560 L 1634 7591 L 1625 7631 L 1626 7671 L 1637 7691 L 1677 7687 L 1707 7739 L 1786 7745 L 1807 7733 L 1810 7688 L 1847 7683 L 1842 7638 L 1851 7627 L 1900 7653 L 1971 7597 L 2007 7607 L 2007 7607 Z" stroke="#20c0ff" stroke-width="inherit" opacity="1" class="highcharts-point highcharts-null-point highcharts-color-0 highcharts-name-nam-định"></path><path fill="rgba(32, 192, 255, 0.1)" d="M -256 7995 L -311 8010 L -332 8026 L -364 8073 L -400 8154 L -443 8175 L -468 8241 L -485 8247 L -486 8291 L -511 8310 L -545 8313 L -526 8335 L -494 8349 L -487 8410 L -464 8447 L -472 8457 L -510 8438 L -478 8488 L -423 8546 L -432 8589 L -430 8639 L -440 8665 L -497 8643 L -517 8651 L -522 8728 L -547 8728 L -550 8669 L -574 8626 L -596 8612 L -644 8610 L -658 8663 L -654 8706 L -682 8789 L -703 8807 L -759 8832 L -767 8860 L -755 8879 L -796 8909 L -818 8950 L -887 9012 L -928 9034 L -976 9091 L -999 9159 L -967 9179 L -931 9168 L -906 9229 L -856 9280 L -819 9287 L -765 9276 L -731 9279 L -691 9247 L -639 9181 L -601 9165 L -550 9124 L -523 9078 L -518 9030 L -505 9010 L -462 9008 L -453 8973 L -433 8958 L -372 8966 L -335 8947 L -305 8919 L -279 8921 L -220 8891 L -218 8915 L -178 8965 L -153 8971 L -126 8955 L -116 8914 L -87 8877 L -85 8847 L -61 8830 L -25 8771 L -22 8673 L -14 8614 L -20 8568 L -44 8532 L -86 8491 L -107 8446 L -147 8419 L -131 8365 L -106 8344 L -99 8316 L -106 8267 L -119 8238 L -109 8174 L -149 8160 L -191 8181 L -213 8173 L -210 8140 L -243 8095 L -254 8042 L -256 7995 L -256 7995 Z" stroke="#20c0ff" stroke-width="inherit" opacity="1" class="highcharts-point highcharts-null-point highcharts-color-0 highcharts-name-điện-biên"></path><path fill="rgba(32, 192, 255, 0.1)" d="M 2013 9150 L 2029 9098 L 2071 9092 L 2086 9073 L 2103 9019 L 2087 8995 L 2110 8923 L 2095 8852 L 2113 8827 L 2145 8861 L 2186 8838 L 2243 8833 L 2282 8796 L 2316 8810 L 2342 8805 L 2351 8779 L 2328 8744 L 2339 8719 L 2382 8709 L 2456 8650 L 2484 8643 L 2525 8654 L 2546 8632 L 2568 8577 L 2505 8534 L 2494 8513 L 2509 8483 L 2507 8447 L 2489 8424 L 2429 8397 L 2386 8389 L 2358 8400 L 2338 8451 L 2287 8450 L 2242 8520 L 2229 8558 L 2210 8557 L 2166 8525 L 2121 8561 L 2086 8568 L 2037 8551 L 2012 8520 L 1990 8465 L 1970 8436 L 1928 8421 L 1896 8430 L 1854 8469 L 1767 8498 L 1768 8537 L 1796 8582 L 1828 8616 L 1826 8629 L 1776 8695 L 1749 8709 L 1732 8777 L 1729 8814 L 1733 8878 L 1742 8902 L 1781 8934 L 1814 8998 L 1827 9045 L 1800 9088 L 1781 9150 L 1803 9171 L 1844 9176 L 1921 9131 L 1988 9136 L 2013 9150 L 2013 9150 Z" stroke="#20c0ff" stroke-width="inherit" opacity="1" class="highcharts-point highcharts-null-point highcharts-color-0 highcharts-name-lạng-sơn"></path><path fill="rgba(32, 192, 255, 0.1)" d="M 1684 7381 L 1630 7329 L 1631 7293 L 1616 7273 L 1612 7232 L 1569 7217 L 1612 7222 L 1589 7179 L 1569 7179 L 1541 7121 L 1529 6988 L 1512 6939 L 1533 6875 L 1528 6851 L 1499 6865 L 1454 6871 L 1407 6915 L 1375 6934 L 1339 6982 L 1320 6994 L 1271 6993 L 1246 7004 L 1215 7045 L 1188 7049 L 1156 7030 L 1149 7103 L 1099 7153 L 1069 7204 L 1061 7243 L 1092 7302 L 1072 7320 L 1011 7339 L 977 7360 L 929 7376 L 928 7431 L 937 7449 L 901 7481 L 903 7511 L 842 7544 L 753 7526 L 730 7538 L 730 7587 L 747 7593 L 746 7632 L 699 7659 L 674 7686 L 575 7684 L 524 7705 L 529 7719 L 569 7746 L 584 7775 L 619 7758 L 651 7775 L 696 7836 L 701 7854 L 721 7853 L 779 7811 L 813 7804 L 859 7841 L 925 7815 L 1013 7804 L 1062 7815 L 1081 7805 L 1114 7762 L 1180 7717 L 1282 7665 L 1342 7652 L 1490 7527 L 1564 7482 L 1604 7471 L 1648 7441 L 1695 7433 L 1709 7409 L 1684 7381 L 1684 7381 Z" stroke="#20c0ff" stroke-width="inherit" opacity="1" class="highcharts-point highcharts-null-point highcharts-color-0 highcharts-name-thanh-hóa"></path><path fill="rgba(32, 192, 255, 0.1)" d="M 1349 8813 L 1340 8847 L 1315 8890 L 1301 8963 L 1305 9046 L 1322 9099 L 1369 9165 L 1382 9194 L 1381 9229 L 1354 9284 L 1408 9347 L 1460 9381 L 1496 9368 L 1486 9313 L 1523 9221 L 1542 9204 L 1587 9203 L 1646 9236 L 1705 9249 L 1722 9241 L 1739 9204 L 1743 9169 L 1781 9150 L 1800 9088 L 1827 9045 L 1814 8998 L 1781 8934 L 1742 8902 L 1733 8878 L 1729 8814 L 1669 8794 L 1653 8769 L 1583 8723 L 1542 8714 L 1516 8695 L 1500 8764 L 1496 8834 L 1458 8872 L 1396 8857 L 1367 8818 L 1349 8813 L 1349 8813 Z" stroke="#20c0ff" stroke-width="inherit" opacity="1" class="highcharts-point highcharts-null-point highcharts-color-0 highcharts-name-bắc-kạn"></path><path fill="rgba(32, 192, 255, 0.1)" d="M 1354 9284 L 1381 9229 L 1382 9194 L 1369 9165 L 1322 9099 L 1305 9046 L 1301 8963 L 1315 8890 L 1340 8847 L 1349 8813 L 1333 8752 L 1322 8609 L 1325 8562 L 1363 8515 L 1337 8498 L 1283 8480 L 1237 8479 L 1185 8493 L 1127 8569 L 1088 8605 L 1044 8632 L 1026 8666 L 1036 8699 L 1019 8730 L 965 8793 L 966 8830 L 955 8854 L 888 8914 L 863 8974 L 919 9045 L 926 9093 L 938 9108 L 981 9100 L 1000 9111 L 1023 9186 L 1059 9234 L 1083 9316 L 1101 9324 L 1201 9290 L 1308 9276 L 1354 9284 L 1354 9284 Z" stroke="#20c0ff" stroke-width="inherit" opacity="1" class="highcharts-point highcharts-null-point highcharts-color-0 highcharts-name-tuyên-quang"></path><path fill="rgba(32, 192, 255, 0.1)" d="M 1492 6402 L 1505 6409 L 1503 6471 L 1514 6465 L 1520 6422 L 1545 6352 L 1582 6292 L 1607 6264 L 1631 6263 L 1651 6212 L 1736 6130 L 1740 6102 L 1784 6113 L 1858 6068 L 1911 6016 L 1883 5992 L 1914 5980 L 1928 5996 L 1973 6010 L 1964 5988 L 1976 5957 L 2033 5888 L 1940 5899 L 1914 5895 L 1880 5855 L 1842 5852 L 1766 5866 L 1710 5891 L 1699 5935 L 1659 5962 L 1617 5969 L 1570 5964 L 1484 5933 L 1446 5903 L 1390 5894 L 1364 5922 L 1354 5951 L 1301 6009 L 1298 6042 L 1283 6057 L 1242 6058 L 1225 6026 L 1174 6059 L 1172 6101 L 1140 6096 L 1077 6150 L 1081 6184 L 1031 6228 L 1023 6249 L 1037 6320 L 1057 6355 L 1086 6369 L 1159 6374 L 1255 6347 L 1319 6354 L 1409 6343 L 1430 6334 L 1452 6357 L 1449 6372 L 1492 6402 L 1492 6402 Z" stroke="#20c0ff" stroke-width="inherit" opacity="1" class="highcharts-point highcharts-null-point highcharts-color-0 highcharts-name-hà-tĩnh"></path><path fill="rgba(32, 192, 255, 0.1)" d="M 1528 6851 L 1505 6823 L 1486 6824 L 1477 6775 L 1481 6729 L 1452 6709 L 1433 6715 L 1416 6697 L 1396 6648 L 1406 6592 L 1420 6571 L 1467 6543 L 1448 6522 L 1470 6520 L 1496 6483 L 1492 6402 L 1449 6372 L 1452 6357 L 1430 6334 L 1409 6343 L 1319 6354 L 1255 6347 L 1159 6374 L 1086 6369 L 1046 6427 L 1012 6426 L 960 6453 L 923 6452 L 897 6480 L 838 6483 L 773 6496 L 748 6520 L 720 6526 L 649 6581 L 605 6633 L 549 6644 L 517 6685 L 481 6700 L 451 6726 L 417 6724 L 408 6758 L 373 6784 L 296 6819 L 251 6816 L 213 6840 L 196 6867 L 165 6871 L 180.000001 6891 L 216 6910 L 238 6938 L 298 6954 L 314 6996 L 334 7005 L 322 7060 L 284 7091 L 271 7129 L 288 7150 L 334 7128 L 367 7154 L 432 7168 L 465 7151 L 477 7130 L 510 7150 L 536 7152 L 561 7127 L 624 7091 L 705 7102 L 727 7161 L 753 7188 L 784 7196 L 832 7229 L 840 7271 L 801 7280 L 815 7315 L 869 7349 L 880 7369 L 929 7376 L 977 7360 L 1011 7339 L 1072 7320 L 1092 7302 L 1061 7243 L 1069 7204 L 1099 7153 L 1149 7103 L 1156 7030 L 1188 7049 L 1215 7045 L 1246 7004 L 1271 6993 L 1320 6994 L 1339 6982 L 1375 6934 L 1407 6915 L 1454 6871 L 1499 6865 L 1528 6851 L 1528 6851 Z" stroke="#20c0ff" stroke-width="inherit" opacity="1" class="highcharts-point highcharts-null-point highcharts-color-0 highcharts-name-nghệ-an"></path><path fill="rgba(32, 192, 255, 0.1)" d="M 2033 5888 L 2037 5878 L 1989 5833 L 1980 5807 L 2014 5701 L 1976 5728 L 1933 5747 L 1870 5751 L 1913 5733 L 1971 5722 L 1939 5713 L 2024 5687 L 2103 5567 L 2117 5532 L 2209 5434 L 2382 5308 L 2309 5262 L 2277 5222 L 2249 5173 L 2201 5159 L 2088 5166 L 2049 5150 L 2043 5179 L 2023 5160 L 1969 5178 L 1945 5220 L 1943 5248 L 1909 5280 L 1888 5315 L 1890 5352 L 1872 5394 L 1855 5397 L 1828 5365 L 1802 5374 L 1685 5473 L 1608 5563 L 1562 5622 L 1521 5654 L 1484 5670 L 1419 5784 L 1392 5809 L 1384 5834 L 1390 5894 L 1446 5903 L 1484 5933 L 1570 5964 L 1617 5969 L 1659 5962 L 1699 5935 L 1710 5891 L 1766 5866 L 1842 5852 L 1880 5855 L 1914 5895 L 1940 5899 L 2033 5888 L 2033 5888 Z" stroke="#20c0ff" stroke-width="inherit" opacity="1" class="highcharts-point highcharts-null-point highcharts-color-0 highcharts-name-quảng-bình"></path><path fill="rgba(32, 192, 255, 0.1)" d="M 2795 2052 L 2791 2112 L 2761 2155 L 2741 2232 L 2751 2246 L 2736 2275 L 2807 2452 L 2892 2505 L 2979 2518 L 3069 2516 L 3143 2545 L 3198 2546 L 3383 2483 L 3416 2451 L 3434 2415 L 3463 2322 L 3494 2292 L 3600 2266 L 3647 2193 L 3714 2145 L 3764 2124 L 3824 2111 L 3873 2092 L 3826 2049 L 3780 2038 L 3758 1985 L 3762 1953 L 3745 1893 L 3731 1882 L 3688 1901 L 3616 1887 L 3609 1864 L 3611 1806 L 3622 1758 L 3566 1734 L 3502 1754 L 3479 1748 L 3438 1712 L 3373 1708 L 3314 1670 L 3301 1646 L 3248 1656 L 3216 1642 L 3223 1678 L 3185 1724 L 3151 1748 L 3114 1754 L 3087 1788 L 3078 1830 L 3113 1847 L 3132 1887 L 3111 1905 L 3072 1917 L 3064 1944 L 3037 1963 L 3028 2030 L 3013 2057 L 2795 2052 L 2795 2052 Z" stroke="#20c0ff" stroke-width="inherit" opacity="1" class="highcharts-point highcharts-null-point highcharts-color-0 highcharts-name-đắk-lắk"></path><path fill="rgba(32, 192, 255, 0.1)" d="M 4005 1385 L 4034 1347 L 3997 1300 L 3992 1275 L 3958 1224 L 3908 1233 L 3890 1273 L 3873 1269 L 3888 1246 L 3880 1184 L 3875 1066 L 3827 1031 L 3794 1041 L 3766 1088 L 3696 1101 L 3689 1139 L 3654 1158 L 3640 1203 L 3584 1215 L 3576 1270 L 3623 1321 L 3629 1346 L 3602 1381 L 3594 1417 L 3625 1516 L 3632 1582 L 3625 1625 L 3650 1669 L 3693 1652 L 3716 1628 L 3767 1504 L 3787 1491 L 3880 1471 L 3904 1446 L 3919 1407 L 3940 1391 L 4005 1385 L 4005 1385 Z" stroke="#20c0ff" stroke-width="inherit" opacity="1" class="highcharts-point highcharts-null-point highcharts-color-0 highcharts-name-ninh-thuận"></path><path fill="rgba(32, 192, 255, 0.1)" d="M 3216 1642 L 3170 1637 L 3130 1622 L 3121 1579 L 3147 1541 L 3196 1486 L 3198 1441 L 3177 1399 L 3133 1360 L 3105 1380 L 3072 1377 L 3063 1414 L 3043 1428 L 2979 1417 L 2950 1432 L 2942 1458 L 2918 1459 L 2860 1398 L 2818 1370 L 2774 1359 L 2732 1338 L 2694 1343 L 2701 1368 L 2681 1415 L 2670 1465 L 2648 1493 L 2607 1521 L 2588 1572 L 2573 1752 L 2639 1766 L 2692 1710 L 2709 1711 L 2733 1745 L 2779 1778 L 2809 1873 L 2814 1971 L 2795 2052 L 3013 2057 L 3028 2030 L 3037 1963 L 3064 1944 L 3072 1917 L 3111 1905 L 3132 1887 L 3113 1847 L 3078 1830 L 3087 1788 L 3114 1754 L 3151 1748 L 3185 1724 L 3223 1678 L 3216 1642 L 3216 1642 Z" stroke="#20c0ff" stroke-width="inherit" opacity="1" class="highcharts-point highcharts-null-point highcharts-color-0 highcharts-name-đắk-nông"></path><path fill="rgba(32, 192, 255, 0.1)" d="M 3551 3473 L 3462 3449 L 3402 3456 L 3414 3416 L 3404 3380 L 3351 3316 L 3298 3277 L 3221 3240 L 2961 3153 L 2913 3131 L 2869 3095 L 2834 3030 L 2780 2976 L 2719 2935 L 2707 2981 L 2665 2989 L 2644 3007 L 2645 3051 L 2627 3079 L 2654 3167 L 2647 3227 L 2673 3301 L 2722 3311 L 2756 3390 L 2755 3434 L 2774 3490 L 2744 3583 L 2791 3644 L 2722 3694 L 2710 3744 L 2762 3762 L 2804 3762 L 2808 3803 L 2834 3841 L 2835 3865 L 2859 3878 L 2859 3935 L 2816 3970 L 2800 4023 L 2852 4020 L 2880 4000 L 2910 3948 L 2943 3946 L 3005 3892 L 3052 3899 L 3083 3889 L 3148 3839 L 3157 3820 L 3158 3760 L 3205 3700 L 3241 3723 L 3244 3774 L 3259 3781 L 3316 3769 L 3386 3708 L 3413 3657 L 3439 3631 L 3499 3608 L 3516 3578 L 3551 3473 L 3551 3473 Z" stroke="#20c0ff" stroke-width="inherit" opacity="1" class="highcharts-point highcharts-null-point highcharts-color-0 highcharts-name-kon-tum"></path><path fill="rgba(32, 192, 255, 0.1)" d="M 3296 4460 L 3313 4435 L 3372 4394 L 3391 4372 L 3398 4327 L 3421 4284 L 3540 4126 L 3586 4118 L 3543 4086 L 3565 4060 L 3597 4098 L 3602 4065 L 3644 4030 L 3576 4019 L 3448 3974 L 3377 3967 L 3342 3943 L 3308 3889 L 3300 3864 L 3337 3797 L 3316 3769 L 3259 3781 L 3244 3774 L 3241 3723 L 3205 3700 L 3158 3760 L 3157 3820 L 3148 3839 L 3083 3889 L 3052 3899 L 3005 3892 L 2943 3946 L 2910 3948 L 2880 4000 L 2852 4020 L 2800 4023 L 2741 4034 L 2736 4079 L 2707 4099 L 2652 4089 L 2613 4157 L 2565 4187 L 2540 4258 L 2501 4280 L 2493 4306 L 2511 4346 L 2554 4352 L 2603 4384 L 2642 4394 L 2663 4412 L 2701 4467 L 2692 4500 L 2809 4502 L 2854 4528 L 2873 4518 L 2897 4474 L 2909 4475 L 2941 4515 L 2992 4527 L 3047 4522 L 3099 4528 L 3106 4467 L 3135 4449 L 3167 4449 L 3225 4464 L 3296 4460 L 3296 4460 Z" stroke="#20c0ff" stroke-width="inherit" opacity="1" class="highcharts-point highcharts-null-point highcharts-color-0 highcharts-name-quảng-nam"></path><path fill="rgba(32, 192, 255, 0.1)" d="M 2431 4670 L 2360 4676 L 2348 4702 L 2283 4757 L 2286 4825 L 2256 4844 L 2239 4806 L 2207 4769 L 2165 4768 L 2138 4799 L 2127 4836 L 2127 4884 L 2079 4903 L 2052 4954 L 2049 5150 L 2088 5166 L 2201 5159 L 2249 5173 L 2277 5222 L 2309 5262 L 2382 5308 L 2456 5255 L 2467 5234 L 2464 5204 L 2520 5128 L 2479 5099 L 2513 5099 L 2532 5124 L 2671 5009 L 2620 4933 L 2571 4898 L 2504 4888 L 2458 4863 L 2466 4835 L 2500 4803 L 2471 4759 L 2427 4709 L 2431 4670 L 2431 4670 Z" stroke="#20c0ff" stroke-width="inherit" opacity="1" class="highcharts-point highcharts-null-point highcharts-color-0 highcharts-name-quảng-trị"></path><path fill="rgba(32, 192, 255, 0.1)" d="M 2671 5009 L 2732 4965 L 2809 4898 L 2803 4894 L 2716 4939 L 2694 4935 L 2780 4888 L 2802 4892 L 2812 4861 L 2851 4866 L 2843 4845 L 2858 4826 L 2875 4843 L 2919 4802 L 2968 4737 L 2945 4741 L 2959 4692 L 3019 4668 L 3047 4693 L 3052 4726 L 3100 4699 L 3122 4719 L 3130 4689 L 3159 4639 L 3129 4657 L 3131 4638 L 3235 4622 L 3187 4614 L 3122 4627 L 3059 4623 L 3037 4596 L 3013 4546 L 2992 4527 L 2941 4515 L 2909 4475 L 2897 4474 L 2873 4518 L 2854 4528 L 2809 4502 L 2692 4500 L 2691 4513 L 2617 4500 L 2597 4505 L 2554 4553 L 2494 4579 L 2474 4604 L 2466 4644 L 2431 4670 L 2427 4709 L 2471 4759 L 2500 4803 L 2466 4835 L 2458 4863 L 2504 4888 L 2571 4898 L 2620 4933 L 2671 5009 L 2671 5009 Z" stroke="#20c0ff" stroke-width="inherit" opacity="1" class="highcharts-point highcharts-null-point highcharts-color-0 highcharts-name-thừa-thiên-huế"></path><path fill="rgba(32, 192, 255, 0.1)" d="M 248 75 L 229 169 L 196 248 L 138 289 L 130 326 L 193 322 L 245 384 L 301 325 L 303 235 L 275 164 L 265 123 L 278 104 L 278 59 L 248 75 L 248 75 M 846 -289 L 863 -140 L 889 -57 L 945 -55 L 962 -30 L 1023 11 L 1049 -53 L 1045 17 L 1031 50 L 969 119 L 941 130 L 895 123 L 872 137 L 825 204 L 802 218 L 755 215 L 714 158 L 682 165 L 669 243 L 630 279 L 604 324 L 626 345 L 571 331 L 569 360 L 600 366 L 644 432 L 696 443 L 767 434 L 886 332 L 1142 198 L 1202 156 L 1274 84 L 1344 17 L 1351 -15 L 1333 -69 L 1249 -148 L 1230 -180 L 1253 -210 L 1252 -251 L 1190 -237 L 1180 -250 L 1193 -303 L 1172 -335 L 1184 -369 L 1171 -383 L 1142 -375 L 984 -294 L 945 -292 L 875 -309 L 846 -289 L 846 -289 Z" stroke="#20c0ff" stroke-width="inherit" opacity="1" class="highcharts-point highcharts-null-point highcharts-color-0 highcharts-name-kiên-giang"></path><path fill="rgba(32, 192, 255, 0.1)" d="M 3235 4622 L 3203 4592 L 3195 4554 L 3234 4519 L 3256 4533 L 3264 4505 L 3235 4469 L 3272 4484 L 3269 4558 L 3253 4560 L 3267 4586 L 3319 4567 L 3319 4550 L 3282 4546 L 3278 4519 L 3296 4460 L 3225 4464 L 3167 4449 L 3135 4449 L 3106 4467 L 3099 4528 L 3047 4522 L 2992 4527 L 3013 4546 L 3037 4596 L 3059 4623 L 3122 4627 L 3187 4614 L 3235 4622 L 3235 4622 Z" stroke="#20c0ff" stroke-width="inherit" opacity="1" class="highcharts-point highcharts-null-point highcharts-color-0 highcharts-name-đà-nẵng"></path><path fill="rgba(32, 192, 255, 0.1)" d="M 767 434 L 836 431 L 861 441 L 927 522 L 998 558 L 1015 575 L 1015 599 L 978 674 L 988 722 L 1023 746 L 1038 722 L 1119 705 L 1123 671 L 1146 623 L 1189 567 L 1235 567 L 1241 501 L 1259 482 L 1333 446 L 1366 400 L 1390 380 L 1354 347 L 1326 297 L 1311 254 L 1279 253 L 1234 224 L 1209 252 L 1160 224 L 1142 198 L 886 332 L 767 434 L 767 434 Z" stroke="#20c0ff" stroke-width="inherit" opacity="1" class="highcharts-point highcharts-null-point highcharts-color-0 highcharts-name-an-giang"></path><path fill="rgba(32, 192, 255, 0.1)" d="M 1277 -675 L 1210 -798 L 1156 -856 L 1101 -871 L 1041 -949 L 862 -999 L 786 -981 L 763 -964 L 792 -962 L 847 -929 L 835 -907 L 854 -902 L 903 -911 L 940 -886 L 877 -901 L 860 -879 L 915 -866 L 910 -820 L 833 -848 L 803 -814 L 830 -727 L 827 -647 L 835 -539 L 846 -289 L 875 -309 L 945 -292 L 984 -294 L 1142 -375 L 1171 -383 L 1189 -408 L 1176 -438 L 1198 -463 L 1172 -508 L 1173 -530 L 1193 -537 L 1208 -605 L 1223 -627 L 1257 -638 L 1277 -675 L 1277 -675 Z" stroke="#20c0ff" stroke-width="inherit" opacity="1" class="highcharts-point highcharts-null-point highcharts-color-0 highcharts-name-cà-mau"></path><path fill="rgba(32, 192, 255, 0.1)" d="M 1872 110 L 1899 91 L 1920 60 L 1976 5 L 2039 -47 L 2071 -91 L 2077 -120 L 2112 -137 L 2113 -203 L 2090 -250 L 2047 -278 L 1984 -282 L 1940 -250 L 1876 -217 L 1741 -90 L 1691 -29 L 1739 -1 L 1793 17 L 1789 44 L 1830 70 L 1843 94 L 1872 110 L 1872 110 Z" stroke="#20c0ff" stroke-width="inherit" opacity="1" class="highcharts-point highcharts-null-point highcharts-color-0 highcharts-name-trà-vinh"></path><path fill="rgba(32, 192, 255, 0.1)" d="M 1330 9656 L 1351 9623 L 1436 9616 L 1480 9588 L 1547 9514 L 1570 9533 L 1609 9531 L 1646 9567 L 1699 9571 L 1762 9561 L 1784 9547 L 1806 9486 L 1862 9479 L 1958 9506 L 1978 9533 L 2042 9511 L 2062 9480 L 2101 9492 L 2145 9443 L 2185 9441 L 2186 9423 L 2156 9402 L 2148 9366 L 2123 9318 L 2112 9280 L 2089 9272 L 2062 9302 L 2036 9276 L 2013 9150 L 1988 9136 L 1921 9131 L 1844 9176 L 1803 9171 L 1781 9150 L 1743 9169 L 1739 9204 L 1722 9241 L 1705 9249 L 1646 9236 L 1587 9203 L 1542 9204 L 1523 9221 L 1486 9313 L 1496 9368 L 1460 9381 L 1408 9347 L 1354 9284 L 1321 9336 L 1300 9385 L 1274 9418 L 1173 9476 L 1172 9492 L 1211 9520 L 1261 9583 L 1292 9584 L 1305 9601 L 1313 9647 L 1330 9656 L 1330 9656 Z" stroke="#20c0ff" stroke-width="inherit" opacity="1" class="highcharts-point highcharts-null-point highcharts-color-0 highcharts-name-cao-bằng"></path><path fill="rgba(32, 192, 255, 0.1)" d="M -20 9329 L -24 9361 L 8 9417 L 47 9439 L 100 9378 L 146 9336 L 195 9274 L 214 9269 L 229 9243 L 258 9223 L 276 9238 L 276 9269 L 291 9313 L 303 9379 L 337 9425 L 432 9455 L 451 9455 L 442 9425 L 456 9384 L 518 9353 L 533 9358 L 546 9335 L 574 9327 L 608 9285 L 586 9256 L 614 9147 L 660 9121 L 690 9092 L 690 9025 L 713 9038 L 725 8976 L 700 8962 L 662 8919 L 608 8955 L 556 8949 L 544 8923 L 584 8841 L 581 8801 L 552 8775 L 523 8781 L 442 8821 L 423 8771 L 373 8788 L 330 8793 L 272 8832 L 223 8744 L 249 8699 L 230 8646 L 198 8638 L 168 8656 L 84 8751 L 42 8856 L 13 8884 L -11 8878 L 0 8940 L 26 8985 L 79 9011 L 128 9063 L 149 9118 L 113 9160 L 48 9159 L 4 9185 L -2 9207 L 20 9233 L 15 9278 L -20 9329 L -20 9329 Z" stroke="#20c0ff" stroke-width="inherit" opacity="1" class="highcharts-point highcharts-null-point highcharts-color-0 highcharts-name-lào-cai"></path><path fill="rgba(32, 192, 255, 0.1)" d="M 2002 878 L 1996 902 L 1967 931 L 1941 987 L 1938 1039 L 1964 1107 L 2001 1149 L 2025 1193 L 2062 1160 L 2067 1143 L 2125 1117 L 2138 1104 L 2134 1066 L 2159 1020 L 2188 1050 L 2212 1042 L 2210 1013 L 2253 1034 L 2278 1030 L 2365 998 L 2388 997 L 2366 947 L 2396 879 L 2382 836 L 2352 811 L 2327 809 L 2290 829 L 2259 808 L 2261 774 L 2294 728 L 2297 706 L 2270 711 L 2224 696 L 2207 701 L 2139 795 L 2107 824 L 2063 887 L 2002 878 L 2002 878 Z" stroke="#20c0ff" stroke-width="inherit" opacity="1" class="highcharts-point highcharts-null-point highcharts-color-0 highcharts-name-bình-dương"></path><path fill="rgba(32, 192, 255, 0.1)" d="M 5256 4533 L 5235 4622 L 5103 4592 L 5095 4554 L 5134 4519 L 5256 4533 M 5661 4533 L 5640 4622 L 5508 4592 L 5500 4554 L 5539 4519 L 5661 4533 M 5661 4833 L 5640 4922 L 5508 4892 L 5500 4854 L 5539 4819 L 5661 4833 M 5661 4233 L 5640 4322 L 5508 4292 L 5500 4254 L 5539 4219 L 5661 4233 M 5256 4333 L 5235 4422 L 5103 4392 L 5095 4354 L 5134 4319 L 5256 4333 M 5436 4333 L 5415 4422 L 5280 4392 L 5275 4354 L 5314 4319 L 5436 4333 M 5936 4333 L 5915 4422 L 5780 4392 L 5775 4354 L 5814 4319 L 5936 4333 M 5936 4633 L 5915 4722 L 5780 4692 L 5775 4654 L 5814 4619 L 5936 4633 Z" stroke="#20c0ff" stroke-width="inherit" opacity="1" class="highcharts-point highcharts-null-point highcharts-color-0 highcharts-name-hoàng-sa"></path><path fill="rgba(32, 192, 255, 0.1)" d="M 6256 133 L 6235 222 L 6103 192 L 6095 154 L 6134 119 L 6256 133 M 5661 133 L 5640 222 L 5508 192 L 5500 154 L 5539 119 L 5661 133 M 5661 433 L 5640 522 L 5508 492 L 5500 454 L 5539 419 L 5661 433 M 5661 -167 L 5640 -78 L 5508 -108 L 5500 -146 L 5539 -181 L 5661 -167 M 5661 -167 L 5640 -78 L 5508 -108 L 5500 -146 L 5539 -181 L 5661 -167 M 5256 -67 L 5235 -22 L 5103 -8 L 5095 -46 L 5134 -81 L 5256 -67 M 5436 -67 L 5415 -22 L 5380 -8 L 5375 -46 L 5314 -81 L 5436 -67 M 5936 -67 L 5915 -22 L 5780 -8 L 5775 -46 L 5814 -81 L 5936 -67 M 5936 233 L 5915 322 L 5780 292 L 5775 254 L 5814 219 L 5936 233 Z" stroke="#20c0ff" stroke-width="inherit" opacity="1" class="highcharts-point highcharts-null-point highcharts-color-0 highcharts-name-trường-sa"></path></g></g><g class="highcharts-markers highcharts-series-0 highcharts-map-series highcharts-color-0 highcharts-tracker" data-z-index="0.1" opacity="1" transform="translate(10,10) scale(1 1)" clip-path="none"></g></g></svg>